GIL08_slow4_RRA_states
nRows=8
nColumns=47

# SIMM Motion File Header:
name GIL08_slow4_RRA_states
datacolumns 47
datarows 8
otherdata 1
range 1.16816999999998220000 1.17166999999998180000
endheader
time	pelvis_tx	pelvis_ty	pelvis_tz	pelvis_tilt	pelvis_list	pelvis_rotation	hip_flexion_r	hip_adduction_r	hip_rotation_r	knee_angle_r	ankle_angle_r	subtalar_angle_r	mtp_angle_r	hip_flexion_l	hip_adduction_l	hip_rotation_l	knee_angle_l	ankle_angle_l	subtalar_angle_l	mtp_angle_l	lumbar_extension	lumbar_bending	lumbar_rotation	pelvis_tx_u	pelvis_ty_u	pelvis_tz_u	pelvis_tilt_u	pelvis_list_u	pelvis_rotation_u	hip_flexion_r_u	hip_adduction_r_u	hip_rotation_r_u	knee_angle_r_u	ankle_angle_r_u	subtalar_angle_r_u	mtp_angle_r_u	hip_flexion_l_u	hip_adduction_l_u	hip_rotation_l_u	knee_angle_l_u	ankle_angle_l_u	subtalar_angle_l_u	mtp_angle_l_u	lumbar_extension_u	lumbar_bending_u	lumbar_rotation_u
      1.16816999999998220000	     -1.51932556523786060000	      0.97133216047084459000	      0.19921780677330952000	      5.21461304572950900000	      0.34630888491327610000	      5.89523162015387040000	     -0.68227764164713678000	      1.96679147234794540000	      1.93426582528678410000	     -8.93051006060949960000	      4.81598399199129190000	      0.00000000000007627158	     -0.00000000000005374984	     11.29013321833865600000	     -1.34844279496152050000	      5.04318980115143580000	    -48.35519700428851300000	      5.66107281000140010000	     -0.00000000000057139905	      0.00000000000056213570	    -10.87357708582928200000	      3.87963755620271660000	     -1.20264706767736080000	      0.56992670620117947000	      0.01783462811019148300	      0.05674052137444449800	      0.52295555045251163000	     10.77031878239025000000	    -27.00074955101699800000	    -52.84938353062722200000	     -7.39482604733173330000	     29.69019425715727300000	     26.85355524502150000000	     23.13420358906787700000	      0.00000000000041957375	      0.00000000000007009805	     59.47858496072436900000	     22.25406722381985200000	    -12.16771386581669600000	    112.58878025292154000000	     70.71414232048158500000	     -0.00000000000054236139	      0.00000000000017377608	     -8.80937571283592650000	    -18.53320742724478600000	     33.00294789053842200000
      1.16866999999998210000	     -1.51904062577976600000	      0.97134099305905663000	      0.19924618624209145000	      5.21487069760062650000	      0.35168216391049600000	      5.88170081093807970000	     -0.70869061859899452000	      1.96309542925244070000	      1.94916301762874620000	     -8.91708707883599060000	      4.82753826715006000000	      0.00000000000007647813	     -0.00000000000005370073	     11.31984039138430900000	     -1.33732855417510990000	      5.03711975906272700000	    -48.29878380201620300000	      5.69639486348368250000	     -0.00000000000057167015	      0.00000000000056222248	    -10.87798062025570500000	      3.87037536085288810000	     -1.18613075732233760000	      0.56983168001248263000	      0.01749573724995331200	      0.05677683810151082400	      0.50763948933625669000	     10.72262796135603600000	    -27.12212508393585600000	    -52.80260556730384300000	     -7.38915997420893960000	     29.89812743408262800000	     26.83843939584582100000	     23.08304850398526400000	      0.00000000000041022156	      0.00000000000012549516	     59.35007879672533400000	     22.20270759300787200000	    -12.11225353511234800000	    113.06384691787387000000	     70.57301761077251000000	     -0.00000000000054158322	      0.00000000000017272136	     -8.80462809042502140000	    -18.51527481023529700000	     33.06168847817122000000
      1.16916999999998210000	     -1.51875573299681400000	      0.97134965622260949000	      0.19927458309737436000	      5.21512067195883850000	      0.35703134666026476000	      5.86810985707511180000	     -0.73508032932430922000	      1.95940249575864240000	      1.96416349942913500000	     -8.90367155221699850000	      4.83906717779511550000	      0.00000000000007668448	     -0.00000000000005365034	     11.34948326722555500000	     -1.32624027376838580000	      5.03107774247923790000	    -48.24213333435368900000	      5.73164476080811710000	     -0.00000000000057194093	      0.00000000000056230873	    -10.88238157756798200000	      3.86112257665110550000	     -1.16958598414660720000	      0.56974002015394820000	      0.01715693390094295800	      0.05681007057295591600	      0.49224389083915704000	     10.67393991812680600000	    -27.24132844010490500000	    -52.75632032838522900000	     -7.38239360204672490000	     30.10334060817781700000	     26.82373755687778800000	     23.03271723658597400000	      0.00000000000040765666	      0.00000000000008210993	     59.22139332344330900000	     22.15022962936334100000	    -12.05562411503077100000	    113.53785110480264000000	     70.42549224843497800000	     -0.00000000000054201100	      0.00000000000017263814	     -8.79906236623881100000	    -18.49557066931307900000	     33.11679931210247900000
      1.16966999999998200000	     -1.51847088519180360000	      0.97135815000979631000	      0.19930299579903604000	      5.21536292720957120000	      0.36235593976489577000	      5.85445984582894500000	     -0.76144702173161061000	      1.95571321763388740000	      1.97926589939023460000	     -8.89026327164678070000	      4.85057112581566670000	      0.00000000000007688767	     -0.00000000000005361028	     11.37906175436065900000	     -1.31517850933397560000	      5.02506432442346450000	    -48.18524612510559300000	      5.76681927675106020000	     -0.00000000000057221204	      0.00000000000056239522	    -10.88677954370695400000	      3.85188008279465020000	     -1.15301456409205820000	      0.56965176726598410000	      0.01681823200667929500	      0.05684022123502817400	      0.47676262343181836000	     10.62426754984986000000	    -27.35835166243103000000	    -52.71053198057252600000	     -7.37453533133696930000	     30.30580045305264000000	     26.80945354173351800000	     22.98323456007281600000	      0.00000000000040435441	      0.00000000000010576833	     59.09252592152024900000	     22.09664299828690700000	    -11.99785791306515400000	    114.01080954238361000000	     70.27149318672520900000	     -0.00000000000054197008	      0.00000000000017160526	     -8.79266316294636320000	    -18.47411088268306400000	     33.16827358694001000000
      1.17016999999998190000	     -1.51818608065525030000	      0.97136647447369384000	      0.19933142280555496000	      5.21559741932214840000	      0.36765545238740532000	      5.84075186987671200000	     -0.78779094473723676000	      1.95202814089156650000	      1.99446883579984100000	     -8.87686202857666730000	      4.86205055800009860000	      0.00000000000007709186	     -0.00000000000005354588	     11.40857576240196500000	     -1.30414381381649980000	      5.01908006865529990000	    -48.12812269647993400000	      5.80191516434518210000	     -0.00000000000057248307	      0.00000000000056248091	    -10.89117409937820300000	      3.84264875561229720000	     -1.13641831753467140000	      0.56956696028273568000	      0.01647964499971377900	      0.05686729354314868500	      0.46118981834001704000	     10.57362431184276400000	    -27.47318796093843600000	    -52.66524429089603400000	     -7.36559428838168270000	     30.50547555910467100000	     26.79559014733477100000	     22.93462577132624200000	      0.00000000000042771216	      0.00000000000012590691	     58.96347419896145000000	     22.04195815769460200000	    -11.93898726751102400000	    114.48273739136695000000	     70.11095641455891300000	     -0.00000000000054275334	      0.00000000000017149954	     -8.78541585398041390000	    -18.45091206521253800000	     33.21610595210741200000
      1.17066999999998190000	     -1.51790131765070880000	      0.97137462967611166000	      0.19935986258012930000	      5.21582410078884350000	      0.37292940450198742000	      5.82698702345543040000	     -0.81411235009041327000	      1.94834780229376950000	      2.00977090564180430000	     -8.86346761089198940000	      4.87350590124379670000	      0.00000000000007730739	     -0.00000000000005348954	     11.43802519740859200000	     -1.29313673247829410000	      5.01312551578990020000	    -48.07076355684935000000	      5.83692913285785940000	     -0.00000000000057275463	      0.00000000000056256676	    -10.89556481576595300000	      3.83342945779828390000	     -1.11979906599935330000	      0.56948563828418119000	      0.01614118630867059400	      0.05689129112013806300	      0.44551960146730779000	     10.52202368514541900000	    -27.58583059227999700000	    -52.62046107307482900000	     -7.35557956103237130000	     30.70233457786981300000	     26.78215042636705300000	     22.88691493947966300000	      0.00000000000042303325	      0.00000000000012171587	     58.83423572465990500000	     21.98618556980843400000	    -11.87904489385499600000	    114.95364984800074000000	     69.94381799878218000000	     -0.00000000000054323741	      0.00000000000017058552	     -8.77730578792587930000	    -18.42599085983188800000	     33.26029110164438400000
      1.17116999999998180000	     -1.51761659442992600000	      0.97138261568346929000	      0.19938831358499107000	      5.21604292174890110000	      0.37817731883561806000	      5.81316640580462350000	     -0.84041149044678864000	      1.94467273864575500000	      2.02517069616096720000	     -8.85007980720242490000	      4.88493762668510810000	      0.00000000000007751564	     -0.00000000000005343094	     11.46740996660990500000	     -1.28215780767353890000	      5.00720119694163210000	    -48.01316921349786800000	      5.87185787288684580000	     -0.00000000000057302617	      0.00000000000056265215	    -10.89995125905399900000	      3.82422304892764410000	     -1.10315863493746690000	      0.56940783863453592000	      0.01580286884008632500	      0.05691221857373626000	      0.42974635977278114000	     10.46947970582146700000	    -27.69627396889457700000	    -52.57618573692509000000	     -7.34450095854968050000	     30.89634805922561600000	     26.76913642068907600000	     22.84012659858591100000	      0.00000000000041556413	      0.00000000000013818058	     58.70480830044468900000	     21.92933649215673200000	    -11.81806353311622400000	    115.42356053514207000000	     69.77002304393110400000	     -0.00000000000054311927	      0.00000000000017159932	     -8.76831906192500380000	    -18.39936464027714200000	     33.30082517443051400000
      1.17166999999998180000	     -1.51733190921878090000	      0.97139043257056878000	      0.19941677428781776000	      5.21625382903797520000	      0.38339872931613284000	      5.79929111692774770000	     -0.86668862103973310000	      1.94100347701973490000	      2.04066677458877920000	     -8.83669840314109050000	      4.89634618548237470000	      0.00000000000007772763	     -0.00000000000005336840	     11.49672997381858500000	     -1.27120757353574640000	      5.00130761991382040000	    -47.95534016090174800000	      5.90669803730547470000	     -0.00000000000057329765	      0.00000000000056273806	    -10.90433298639398700000	      3.81503037443062490000	     -1.08649884996391590000	      0.56933359884670676000	      0.01546470549625177300	      0.05693008069144456900	      0.41386447706034940000	     10.41600643869157700000	    -27.80451256103523100000	    -52.53242173823689100000	     -7.33236825689256390000	     31.08748663214665700000	     26.75655042382773600000	     22.79428411286752300000	      0.00000000000043690133	      0.00000000000011908328	     58.57518968846697000000	     21.87142218442437500000	    -11.75607630843104300000	    115.89248311802055000000	     69.58951673040127200000	     -0.00000000000054320541	      0.00000000000017243437	     -8.75844174743632210000	    -18.37105081453426800000	     33.33770436300790900000
